<svg viewBox="0 0 256 256" xmlns="http://www.w3.org/2000/svg" role="img" aria-label="Click’App icon (teal outer)">
  <!-- outer teal rounded square -->
  <rect x="16" y="16" width="224" height="224" rx="48" fill="#0F766E"/>
  <!-- inner amber rounded square -->
  <rect x="56" y="56" width="144" height="144" rx="28" fill="#F59E0B"/>
  <!-- pointer (teal), angled toward lower-right -->
  <path fill="#0F766E" d="M118 92 l48 22 c4 2 4 7 0 9 l-20 10 9 20 c2 5-3 9-8 7 l-21-10 -11 21 c-2 4-7 4-9 0 l-21-48 c-2-4 2-8 6-7 l20 8 11-17 c2-3 6-4 8-1z"/>
  <!-- small round notch (amber) near tip -->
  <circle cx="156" cy="164" r="8" fill="#F59E0B"/>
</svg>
